<?xml version="1.0" standalone="no"?>
<!DOCTYPE svg PUBLIC "-//W3C//DTD SVG 1.1//EN" "http://www.w3.org/Graphics/SVG/1.1/DTD/svg11.dtd">

<svg width="860.0" height="188.0" viewBox="0 0 860.0 188.0" version="1.1" xmlns="http://www.w3.org/2000/svg" xmlns:xlink="http://www.w3.org/1999/xlink">
<!-- automatically generated by aafigure --><line x1="500.0" y1="3.0" x2="500.0" y2="185.0" stroke="#000000" stroke-width="2.0" />
<line x1="94.0" y1="52.0" x2="248.0" y2="52.0" stroke="#000000" stroke-width="2.0" />
<line x1="94.0" y1="52.0" x2="94.0" y2="136.0" stroke="#000000" stroke-width="2.0" />
<line x1="248.0" y1="52.0" x2="248.0" y2="136.0" stroke="#000000" stroke-width="2.0" />
<line x1="626.0" y1="52.0" x2="605.0" y2="73.0" stroke="#000000" stroke-width="2.0" />
<line x1="605.0" y1="73.0" x2="591.0" y2="87.0" stroke="#000000" stroke-width="2.0" />
<line x1="591.0" y1="87.0" x2="577.0" y2="101.0" stroke="#000000" stroke-width="2.0" />
<line x1="577.0" y1="101.0" x2="563.0" y2="115.0" stroke="#000000" stroke-width="2.0" />
<line x1="563.0" y1="115.0" x2="542.0" y2="136.0" stroke="#000000" stroke-width="2.0" />
<line x1="94.0" y1="136.0" x2="248.0" y2="136.0" stroke="#000000" stroke-width="2.0" />
<g>
    <line x1="94.0" y1="136.0" x2="97.5" y2="146.5" stroke="#000000" stroke-width="2.0" />
    <line x1="94.0" y1="136.0" x2="90.5" y2="146.5" stroke="#000000" stroke-width="2.0" />
    <line x1="94.0" y1="136.0" x2="94.0" y2="171.0" stroke="#000000" stroke-width="2.0" />
</g>
<g>
    <line x1="542.0" y1="136.0" x2="545.5" y2="146.5" stroke="#000000" stroke-width="2.0" />
    <line x1="542.0" y1="136.0" x2="538.5" y2="146.5" stroke="#000000" stroke-width="2.0" />
    <line x1="542.0" y1="136.0" x2="542.0" y2="171.0" stroke="#000000" stroke-width="2.0" />
</g>
<text x="3.0" y="14.9" font-family="monospace" font-size="14.0" fill="#000000" >
  Poly(b, [(0,0),(5,0),(5,5),(0,5)])
</text>
<text x="521.0" y="14.9" font-family="monospace" font-size="14.0" fill="#000000" >
  Segment(b, (0,0), (5,5))
</text>
<text x="87.0" y="42.9" font-family="monospace" font-size="14.0" fill="#000000" >
  (0,5)
</text>
<text x="241.0" y="42.9" font-family="monospace" font-size="14.0" fill="#000000" >
  (5,5)
</text>
<text x="647.0" y="42.9" font-family="monospace" font-size="14.0" fill="#000000" >
  (5,5)
</text>
<text x="17.0" y="126.89999999999999" font-family="monospace" font-size="14.0" fill="#000000" >
  (0,0)
</text>
<text x="269.0" y="126.89999999999999" font-family="monospace" font-size="14.0" fill="#000000" >
  (5,0)
</text>
<text x="577.0" y="140.9" font-family="monospace" font-size="14.0" fill="#000000" >
  (0,0)
</text>
<text x="87.0" y="182.9" font-family="monospace" font-size="14.0" fill="#000000" >
  Center of gravity
</text>
<text x="535.0" y="182.9" font-family="monospace" font-size="14.0" fill="#000000" >
  Center of gravity
</text>
</svg>
