<?xml version="1.0" standalone="no"?>
<!DOCTYPE svg PUBLIC "-//W3C//DTD SVG 1.1//EN" "http://www.w3.org/Graphics/SVG/1.1/DTD/svg11.dtd">

<svg width="426.0" height="146.0" viewBox="0 0 426.0 146.0" version="1.1" xmlns="http://www.w3.org/2000/svg" xmlns:xlink="http://www.w3.org/1999/xlink">
<!-- automatically generated by aafigure --><line x1="150.0" y1="17.0" x2="178.0" y2="17.0" stroke="#000000" stroke-width="2.0" />
<line x1="325.0" y1="10.0" x2="339.0" y2="10.0" stroke="#000000" stroke-width="4.0" />
<line x1="115.0" y1="38.0" x2="129.0" y2="38.0" stroke="#000000" stroke-width="2.0" />
<line x1="108.0" y1="52.0" x2="248.0" y2="52.0" stroke="#000000" stroke-width="2.0" />
<line x1="108.0" y1="52.0" x2="108.0" y2="136.0" stroke="#000000" stroke-width="2.0" />
<line x1="248.0" y1="52.0" x2="248.0" y2="136.0" stroke="#000000" stroke-width="2.0" />
<line x1="17.0" y1="136.0" x2="31.0" y2="136.0" stroke="#000000" stroke-width="2.0" />
<line x1="59.0" y1="136.0" x2="73.0" y2="136.0" stroke="#000000" stroke-width="2.0" />
<line x1="108.0" y1="136.0" x2="248.0" y2="136.0" stroke="#000000" stroke-width="2.0" />
<line x1="269.0" y1="136.0" x2="283.0" y2="136.0" stroke="#000000" stroke-width="2.0" />
<text x="3.0" y="14.9" font-family="monospace" font-size="14.0" fill="#000000" >
  Poly.create
</text>
<text x="171.0" y="14.9" font-family="monospace" font-size="14.0" fill="#000000" >
  box(b, size
</text>
<text x="339.0" y="14.9" font-family="monospace" font-size="14.0" fill="#000000" >
  (6,6))
</text>
<text x="101.0" y="42.9" font-family="monospace" font-size="14.0" fill="#000000" >
  (
</text>
<text x="129.0" y="42.9" font-family="monospace" font-size="14.0" fill="#000000" >
  3, 3)
</text>
<text x="255.0" y="56.9" font-family="monospace" font-size="14.0" fill="#000000" >
  (3,3)
</text>
<text x="3.0" y="140.9" font-family="monospace" font-size="14.0" fill="#000000" >
  (
</text>
<text x="31.0" y="140.9" font-family="monospace" font-size="14.0" fill="#000000" >
  3,
</text>
<text x="73.0" y="140.9" font-family="monospace" font-size="14.0" fill="#000000" >
  3)
</text>
<text x="255.0" y="140.9" font-family="monospace" font-size="14.0" fill="#000000" >
  (
</text>
<text x="283.0" y="140.9" font-family="monospace" font-size="14.0" fill="#000000" >
  3,3)
</text>
</svg>
