<?xml version="1.0" standalone="no"?>
<!DOCTYPE svg PUBLIC "-//W3C//DTD SVG 1.1//EN" "http://www.w3.org/Graphics/SVG/1.1/DTD/svg11.dtd">

<svg width="1056.0" height="188.0" viewBox="0 0 1056.0 188.0" version="1.1" xmlns="http://www.w3.org/2000/svg" xmlns:xlink="http://www.w3.org/1999/xlink">
<!-- automatically generated by aafigure --><g>
    <line x1="836.0" y1="3.0" x2="836.0" y2="17.0" stroke="#000000" stroke-width="2.0" />
    <line x1="829.0" y1="10.0" x2="843.0" y2="10.0" stroke="#000000" stroke-width="2.0" />
    <line x1="850.0" y1="3.0" x2="850.0" y2="17.0" stroke="#000000" stroke-width="2.0" />
    <line x1="843.0" y1="10.0" x2="857.0" y2="10.0" stroke="#000000" stroke-width="2.0" />
</g>
<g>
    <line x1="887.3333333333333" y1="3.0" x2="887.3333333333333" y2="17.0" stroke="#000000" stroke-width="2.0" />
    <line x1="894.3333333333333" y1="3.0" x2="894.3333333333333" y2="17.0" stroke="#000000" stroke-width="2.0" />
    <line x1="885.0" y1="5.333333333333333" x2="899.0" y2="5.333333333333333" stroke="#000000" stroke-width="2.0" />
    <line x1="885.0" y1="12.333333333333332" x2="899.0" y2="12.333333333333332" stroke="#000000" stroke-width="2.0" />
    <line x1="901.3333333333334" y1="3.0" x2="901.3333333333334" y2="17.0" stroke="#000000" stroke-width="2.0" />
    <line x1="908.3333333333334" y1="3.0" x2="908.3333333333334" y2="17.0" stroke="#000000" stroke-width="2.0" />
    <line x1="899.0" y1="5.333333333333333" x2="913.0" y2="5.333333333333333" stroke="#000000" stroke-width="2.0" />
    <line x1="899.0" y1="12.333333333333332" x2="913.0" y2="12.333333333333332" stroke="#000000" stroke-width="2.0" />
</g>
<line x1="94.0" y1="66.0" x2="248.0" y2="66.0" stroke="#000000" stroke-width="2.0" />
<line x1="94.0" y1="66.0" x2="94.0" y2="150.0" stroke="#000000" stroke-width="2.0" />
<line x1="248.0" y1="66.0" x2="248.0" y2="150.0" stroke="#000000" stroke-width="2.0" />
<line x1="94.0" y1="150.0" x2="248.0" y2="150.0" stroke="#000000" stroke-width="2.0" />
<g>
    <line x1="94.0" y1="150.0" x2="97.5" y2="160.5" stroke="#000000" stroke-width="2.0" />
    <line x1="94.0" y1="150.0" x2="90.5" y2="160.5" stroke="#000000" stroke-width="2.0" />
    <line x1="94.0" y1="150.0" x2="94.0" y2="185.0" stroke="#000000" stroke-width="2.0" />
</g>
<text x="3.0" y="14.9" font-family="monospace" font-size="14.0" fill="#000000" >
  A box created with Poly(body, [(0,0),(5,0),(5,5),(0,5)]) wi
</text>
<text x="871.0" y="14.9" font-family="monospace" font-size="14.0" fill="#000000" >
  l
</text>
<text x="913.0" y="14.9" font-family="monospace" font-size="14.0" fill="#000000" >
  k like the
</text>
<text x="87.0" y="56.9" font-family="monospace" font-size="14.0" fill="#000000" >
  (0,5)
</text>
<text x="241.0" y="56.9" font-family="monospace" font-size="14.0" fill="#000000" >
  (5,5)
</text>
<text x="3.0" y="140.9" font-family="monospace" font-size="14.0" fill="#000000" >
  (0,0)
</text>
<text x="269.0" y="140.9" font-family="monospace" font-size="14.0" fill="#000000" >
  (5,0)
</text>
<text x="115.0" y="182.9" font-family="monospace" font-size="14.0" fill="#000000" >
  Center of gravity
</text>
</svg>
