<svg xmlns="http://www.w3.org/2000/svg" viewBox="0 0 288.96 84.47"><defs><style>.cls-1{fill:#444;}.cls-2{fill:#d68f00;}.cls-3{fill:#fff;}.cls-4{fill:#c1c1c1;}</style></defs><g id="Layer_2" data-name="Layer 2"><g id="Capa_1" data-name="Capa 1"><path class="cls-1" d="M96.81,42.31a22,22,0,0,1-5.08-2.24,12.7,12.7,0,0,1-3.66-3.35,11.59,11.59,0,0,1-1.81-3.66,14.26,14.26,0,0,1-.55-4,14.89,14.89,0,0,1,6.93-12.44A18.19,18.19,0,0,1,98.7,14a29.6,29.6,0,0,1,7.24-.86,28.3,28.3,0,0,1,5.39.51,19.62,19.62,0,0,1,4.77,1.53,20.36,20.36,0,0,1,6.06,4.29,14.23,14.23,0,0,1,3.7,6.34l-10.32,6.53a10,10,0,0,0-4-4.33,12.47,12.47,0,0,0-5.75-1.73h-2a5.72,5.72,0,0,0-2.13.4,4.6,4.6,0,0,0-1.5.86,2.08,2.08,0,0,0-.63,1.65,2.16,2.16,0,0,0,1.15,2,10.59,10.59,0,0,0,2.48,1.06l11.25,3.15a27.83,27.83,0,0,1,5.43,2.17,11.42,11.42,0,0,1,3.94,3.34,12.62,12.62,0,0,1,2.2,7.8,13.94,13.94,0,0,1-1.77,7.08,16.5,16.5,0,0,1-4.37,5,17.58,17.58,0,0,1-6.65,3,32.06,32.06,0,0,1-7.67.75,28.27,28.27,0,0,1-6.89-.91,23.08,23.08,0,0,1-6.42-2.63,27.76,27.76,0,0,1-4.33-3.35,20.81,20.81,0,0,1-3.62-4.61L94.53,45.3a9.82,9.82,0,0,0,4.88,4.57,13.63,13.63,0,0,0,2.83,1,21.57,21.57,0,0,0,3.23.55,11.69,11.69,0,0,0,1.73,0,6.47,6.47,0,0,0,1.93-.35,4.18,4.18,0,0,0,1.53-.91,2.09,2.09,0,0,0,.63-1.61,2.21,2.21,0,0,0-.82-1.62,7.42,7.42,0,0,0-2.17-1.06Z"/><path class="cls-1" d="M142.94,14.05V63.64H128.37V14.05Z"/><path class="cls-1" d="M165,52.7a5.54,5.54,0,0,0,4-1.53A9.77,9.77,0,0,0,171.27,48V22.47h14.49V63.64H172l-.39-3.46A10.69,10.69,0,0,1,169.66,62a13.08,13.08,0,0,1-2.4,1.38,13.45,13.45,0,0,1-3.54,1.06,23.2,23.2,0,0,1-3.39.28,19,19,0,0,1-7.44-1.62A11,11,0,0,1,147.58,58a15.7,15.7,0,0,1-1.53-4.92,39.65,39.65,0,0,1-.44-6.1V22.47h14.57V42c0,1.2,0,2.62,0,4.25a9.35,9.35,0,0,0,1,4.25,4.29,4.29,0,0,0,1.46,1.61A4.18,4.18,0,0,0,165,52.7Z"/><path class="cls-1" d="M209.69,33.42a5.62,5.62,0,0,0-4,1.49,8.56,8.56,0,0,0-2.24,3.15V63.64H188.91V22.47H203l.23,3.39a9.67,9.67,0,0,1,1.85-1.69,15.76,15.76,0,0,1,2.17-1.3,13.67,13.67,0,0,1,3.38-1.07,21,21,0,0,1,3.78-.35,17.81,17.81,0,0,1,5.47.87,12.6,12.6,0,0,1,4.61,2.52A12.22,12.22,0,0,1,228,30.66a30,30,0,0,1,1,8.26V63.64H214.57V44.12c0-1.21,0-2.62-.08-4.25a10.64,10.64,0,0,0-.94-4.25A4.38,4.38,0,0,0,212.09,34,4.29,4.29,0,0,0,209.69,33.42Z"/><path class="cls-1" d="M248.5,8.54a9,9,0,0,1-.63,3.9,7.65,7.65,0,0,1-1.93,2.67,7.54,7.54,0,0,1-2.84,1.54,11.68,11.68,0,0,1-3.26.47,10.15,10.15,0,0,1-3.19-.67A7.83,7.83,0,0,1,234,14.76,7,7,0,0,1,232.24,12a8.65,8.65,0,0,1-.35-3.85,7.8,7.8,0,0,1,.9-3.23,7,7,0,0,1,1.89-2.2,8,8,0,0,1,2.56-1.3A9.82,9.82,0,0,1,240.15,1a10.52,10.52,0,0,1,3,.44,7.3,7.3,0,0,1,2.6,1.37,7.68,7.68,0,0,1,1.89,2.37A7.91,7.91,0,0,1,248.5,8.54Zm-15.59,55.1V22.47h14.56V63.64Z"/><path class="cls-1" d="M271.87,33.42a7.36,7.36,0,0,0-2.91.51,8,8,0,0,0-2.28,1.53,8.72,8.72,0,0,0-2.17,3.27,11.47,11.47,0,0,0-.74,4.13,10.23,10.23,0,0,0,2,6.61,8.64,8.64,0,0,0,2.56,2.25,7.73,7.73,0,0,0,3.82.82,7.15,7.15,0,0,0,4.25-1.41,9.45,9.45,0,0,0,3-3.47L289,54.59a19.08,19.08,0,0,1-7.44,7.48,22.13,22.13,0,0,1-10.35,2.28,25.13,25.13,0,0,1-8.7-1.45,19.21,19.21,0,0,1-11.34-12A26.83,26.83,0,0,1,250,43a21.71,21.71,0,0,1,1.81-8.84A22.45,22.45,0,0,1,256.68,27,19.69,19.69,0,0,1,264,22.79a25.84,25.84,0,0,1,8.31-1.18,22.94,22.94,0,0,1,4.37.43,18.34,18.34,0,0,1,4.29,1.37,17.39,17.39,0,0,1,4.88,3.48,12,12,0,0,1,3,5.12l-9.68,6.84A12.32,12.32,0,0,0,276.24,35,6.32,6.32,0,0,0,271.87,33.42Z"/><circle class="cls-2" cx="39.21" cy="39.21" r="39.21"/><path class="cls-3" d="M29.87,42.36a22.44,22.44,0,0,1-5.08-2.24,12.7,12.7,0,0,1-3.66-3.35,11.59,11.59,0,0,1-1.81-3.66,14.31,14.31,0,0,1-.55-4A14.89,14.89,0,0,1,25.7,16.7,18.19,18.19,0,0,1,31.76,14,29.6,29.6,0,0,1,39,13.15a28.3,28.3,0,0,1,5.39.52,19.62,19.62,0,0,1,4.77,1.53,20.36,20.36,0,0,1,6.06,4.29,14.18,14.18,0,0,1,3.7,6.34L48.6,32.36a10,10,0,0,0-4-4.33,12.47,12.47,0,0,0-5.75-1.73h-2a5.91,5.91,0,0,0-2.13.39,4.47,4.47,0,0,0-1.49.87,2.05,2.05,0,0,0-.63,1.65,2.17,2.17,0,0,0,1.14,2,10.59,10.59,0,0,0,2.48,1.06L47.5,35.43a27.83,27.83,0,0,1,5.43,2.17,11.42,11.42,0,0,1,3.94,3.34,12.6,12.6,0,0,1,2.2,7.8,13.94,13.94,0,0,1-1.77,7.08,16.5,16.5,0,0,1-4.37,5,17.58,17.58,0,0,1-6.65,3,32.06,32.06,0,0,1-7.67.75,28.27,28.27,0,0,1-6.89-.91,22.8,22.8,0,0,1-6.42-2.64A27.1,27.1,0,0,1,21,57.75a20.81,20.81,0,0,1-3.62-4.61l10.24-7.79a9.86,9.86,0,0,0,4.88,4.57,13.63,13.63,0,0,0,2.83,1,21.57,21.57,0,0,0,3.23.55,11.69,11.69,0,0,0,1.73,0,6.73,6.73,0,0,0,1.93-.35,4.32,4.32,0,0,0,1.53-.91,2.09,2.09,0,0,0,.63-1.61A2.18,2.18,0,0,0,43.53,47,7.42,7.42,0,0,0,41.36,46Z"/><path class="cls-4" d="M184.94,70.47a1.9,1.9,0,0,1,1.23,2.23,2,2,0,0,1-2.23,1.35,2.33,2.33,0,0,0-2.28.81,4.07,4.07,0,0,0-1,1.61,2.42,2.42,0,0,0,.67,2.64,2.59,2.59,0,0,0,2.72.48,2.73,2.73,0,0,1,1.58-.12A1.84,1.84,0,0,1,187,80.84a1.67,1.67,0,0,1-.65,1.82,2.81,2.81,0,0,1-.86.53c-3.15,1.08-7.85-.19-8.79-4.68-.84-4,2.48-7.92,6.32-8.3A3.86,3.86,0,0,1,184.94,70.47Z"/><path class="cls-4" d="M187.1,77.6a6.33,6.33,0,0,1,4.68-6.46c2.81-.74,6.08.34,6.89,3.58a6.67,6.67,0,0,1-1.75,6.21,5.81,5.81,0,0,1-9.82-3.33Zm7.61-2.14a1.24,1.24,0,0,0-1.29-.84,2.6,2.6,0,0,0-2.28,2.62,1.61,1.61,0,0,0,2.68,1.2A2.94,2.94,0,0,0,194.71,75.46Z"/><path class="cls-4" d="M210.43,71.14a3.37,3.37,0,0,1,3.46.87A6.51,6.51,0,0,1,216,76.47a37.4,37.4,0,0,1-.12,4.37,2,2,0,0,1-4-.29c0-1.1.12-2.23.12-3.36-.19-3-2.09-2.26-2.38.36a17.26,17.26,0,0,0,0,2.69,2.62,2.62,0,0,1,0,.79,2,2,0,0,1-4,.14,4.87,4.87,0,0,1-.1-1.34,15.48,15.48,0,0,0-.07-1.8c-.38-3.43-2.28-3.74-2.11.07,0,.58,0,1.15,0,1.75,0,.22.07.44.09.65a1.88,1.88,0,0,1-1.58,2.16,2,2,0,0,1-2.31-1.34,5.62,5.62,0,0,1-.21-1.27,18.33,18.33,0,0,1-.07-4,6.67,6.67,0,0,1,1.34-3.33,5.35,5.35,0,0,1,1.75-1.52,4.6,4.6,0,0,1,5.07.68l.52.6A6.59,6.59,0,0,1,210.43,71.14Z"/><path class="cls-4" d="M227.23,71.14a3.37,3.37,0,0,1,3.46.87,6.51,6.51,0,0,1,2.06,4.46,37.4,37.4,0,0,1-.12,4.37,2,2,0,0,1-4-.29c0-1.1.12-2.23.12-3.36-.19-3-2.09-2.26-2.38.36a17.26,17.26,0,0,0,0,2.69,2.62,2.62,0,0,1,0,.79,2,2,0,0,1-4,.14,4.87,4.87,0,0,1-.1-1.34,15.48,15.48,0,0,0-.07-1.8c-.38-3.43-2.28-3.74-2.11.07,0,.58,0,1.15.05,1.75,0,.22.07.44.09.65a1.88,1.88,0,0,1-1.58,2.16,2,2,0,0,1-2.31-1.34,5.62,5.62,0,0,1-.21-1.27,18.33,18.33,0,0,1-.07-4,6.67,6.67,0,0,1,1.34-3.33,5.35,5.35,0,0,1,1.75-1.52,4.6,4.6,0,0,1,5.07.68l.52.6A6.59,6.59,0,0,1,227.23,71.14Z"/><path class="cls-4" d="M243.05,80c-2.24,4.73-8.57,3-9.53-1.66a18.39,18.39,0,0,1-.22-5.59,2,2,0,0,1,2.23-1.85,1.84,1.84,0,0,1,1.71,1.61,6.16,6.16,0,0,1,0,1c0,1.18.05,2.33.12,3.48.07,2.43,2,2.47,2.4.17.2-1.3,0-2.62.05-3.89a2.06,2.06,0,0,1,2.67-1.8,1.84,1.84,0,0,1,1.34,1.78c0,.62,0,1.25,0,1.87A9.88,9.88,0,0,1,243.05,80Z"/><path class="cls-4" d="M248.38,80.5a1.92,1.92,0,0,1-1.52,2.09A2,2,0,0,1,244.39,81a6.65,6.65,0,0,1-.12-1.18c-.05-2.13-.09-4.32-.12-6.48a3.14,3.14,0,0,1,.19-1.12,2,2,0,0,1,3.15-.72,4.31,4.31,0,0,1,.41.43l.64-.46a6.25,6.25,0,0,1,3.63-1.25,3.93,3.93,0,0,1,3.09,1.4,6.34,6.34,0,0,1,1.68,3.76,18.36,18.36,0,0,1,0,4.32c-.05.53-.05,1.06-.12,1.56A2,2,0,0,1,255.53,83a2,2,0,0,1-2.14-.36,1.72,1.72,0,0,1-.62-1.49c0-.86.14-1.75.17-2.64.26-7.2-4.44-4.72-4.64.94A3.72,3.72,0,0,0,248.38,80.5Z"/><path class="cls-4" d="M261.55,80.45a1.88,1.88,0,0,1-1.63,2,2,2,0,0,1-2.31-1.49,7.76,7.76,0,0,1-.09-1V75.34a3.07,3.07,0,0,1,.05-.69,2,2,0,0,1,2-1.64,1.94,1.94,0,0,1,1.92,1.83,14.69,14.69,0,0,1,0,1.49c0,.45,0,.93,0,1.41C261.55,78.63,261.58,79.54,261.55,80.45Zm-3.79-10a1.92,1.92,0,0,1,2-1.87,2,2,0,0,1,2,1.83,1.94,1.94,0,0,1-2,1.89A1.92,1.92,0,0,1,257.76,70.49Z"/><path class="cls-4" d="M268.53,78.25c.36,1.32,1.4.76,1.25-.39.07-.29.07-.6.17-.89a2,2,0,0,1,2-1.39,1.83,1.83,0,0,1,1.8,1.3,1.11,1.11,0,0,1,.09.57,7.18,7.18,0,0,1-.86,3.48,4,4,0,0,1-4.82,1.88,4.82,4.82,0,0,1-3.53-3.7c-.22-1-.29-1.94-.43-2.93a5.24,5.24,0,0,0,0-.67c-.72-.12-1.46-.17-1.87-.79a2.22,2.22,0,0,1-.38-1c-.1-1,.5-1.61,2.16-2.14v-1c0-.79,0-1.61,0-2.4a2,2,0,0,1,2-1.8A1.91,1.91,0,0,1,268,68.07a15.45,15.45,0,0,1,0,1.8c0,.55,0,1.1,0,1.68h2.28a7.37,7.37,0,0,1,.82,0,1.82,1.82,0,0,1,1.66,1.7,1.92,1.92,0,0,1-1.54,1.92,6.42,6.42,0,0,1-1.39.12c-.55,0-1.08,0-1.66,0A10.19,10.19,0,0,0,268.53,78.25Z"/><path class="cls-4" d="M282.19,78.27c-3.12,2.14-7.08,0-7.9-2.88a8.24,8.24,0,0,1-.21-4,2.09,2.09,0,0,1,2.54-1.61A1.8,1.8,0,0,1,278,72a5.35,5.35,0,0,0,0,2.07,1.73,1.73,0,0,0,.62,1,1,1,0,0,0,1.54-.12,6.86,6.86,0,0,0,1.6-2.72,11.1,11.1,0,0,1,.39-1.15,2.07,2.07,0,0,1,2.66-1.2,1.91,1.91,0,0,1,1.25,1.47c.12.72.17,1.44.22,2.13.09,1.13.16,2.28.21,3.43a17.78,17.78,0,0,1,0,2.31,5.51,5.51,0,0,1-4.75,5.06c-1,.1-1.9.17-2.84.24a1.79,1.79,0,0,1-.76-.12,1.86,1.86,0,0,1-1.4-2,2,2,0,0,1,1.85-1.64c.84-.07,1.68-.14,2.5-.19a1.35,1.35,0,0,0,1.22-.93,2.94,2.94,0,0,0,.17-1.52Z"/></g></g></svg>