<svg xmlns="http://www.w3.org/2000/svg" viewBox="0 0 293.85 293.88"><defs><style>.cls-1{fill:#fff;}.cls-2{fill:#fceda7;}.cls-3{fill:#aedbed;}.cls-4{fill:#444;}</style></defs><g id="Layer_2" data-name="Layer 2"><g id="Capa_1" data-name="Capa 1"><path class="cls-1" d="M203.28,236.63V137.72A17.25,17.25,0,0,0,186,120.47H21.56A17.26,17.26,0,0,0,4.31,137.72v98.91a17.25,17.25,0,0,0,17.25,17.25H46.87v33.36l74.75-33.36H186A17.25,17.25,0,0,0,203.28,236.63Z"/><path class="cls-2" d="M90.57,120.47V21.56A17.25,17.25,0,0,1,107.82,4.31H272.29a17.26,17.26,0,0,1,17.25,17.25v98.91a17.25,17.25,0,0,1-17.25,17.25H247v33.36l-74.75-33.36H107.82a17.25,17.25,0,0,1-17.25-17.25Z"/><path class="cls-1" d="M206.16,27.89h-61v8a17.25,17.25,0,0,0,17.25,17.25h-2.3V82.52a31.63,31.63,0,1,0,63.26,0V45.14A17.25,17.25,0,0,0,206.16,27.89Z"/><path class="cls-3" d="M66.42,221.11,37.33,191.88a18.59,18.59,0,1,1,26.33-26.26l2.76,2.77,2.75-2.77A18.59,18.59,0,1,1,95.5,191.88Z"/><path id="Outline" class="cls-4" d="M272.29,0H107.82A21.58,21.58,0,0,0,86.26,21.56v94.6H21.56A21.58,21.58,0,0,0,0,137.72v98.91A21.59,21.59,0,0,0,21.56,258.2h21v35.68l80-35.68H186a21.59,21.59,0,0,0,21.56-21.57v-78.4l43.71,19.49V142h21a21.59,21.59,0,0,0,21.56-21.57V21.56A21.58,21.58,0,0,0,272.29,0ZM199,236.63A13,13,0,0,1,186,249.57H120.7l-69.52,31v-31H21.56A13,13,0,0,1,8.63,236.63V137.72a12.94,12.94,0,0,1,12.93-12.93H86.69A21.61,21.61,0,0,0,107.82,142h63.49L199,154.38Zm86.25-116.16a13,13,0,0,1-12.93,12.94H242.67v31l-69.52-31H107.82a13,13,0,0,1-12.94-12.94V21.56A13,13,0,0,1,107.82,8.63H272.29a12.94,12.94,0,0,1,12.93,12.93ZM134.27,188h8.63v8.63h-8.63v8.62h-8.62v-8.62H117V188h8.63v-8.62h8.62Zm37.09-25.88v46h8.92v8.62H153.83v-8.62h8.91V175.42l-5.35,7.86-7.13-4.85,11.06-16.27Zm34.8-138.58H140.89V35.94a21.59,21.59,0,0,0,15,20.52V82.52a35.94,35.94,0,1,0,71.88,0V45.14A21.58,21.58,0,0,0,206.16,23.58Zm12.93,58.94a27.32,27.32,0,0,1-54.63,0v-25h54.63Zm0-33.64H162.45a13,13,0,0,1-12.94-12.94V32.2h56.65a13,13,0,0,1,12.93,12.94ZM182.87,81.94h-8.63V73.32h8.63Zm26.45,0h-8.63V73.32h8.63Zm-88.56,4.32h8.63v8.62h-8.63Zm0,28.75h8.63v8.63h-8.63Zm14.38-14.38h8.62v8.63h-8.62Zm-28.76,0H115v8.63h-8.63ZM253.6,17.25h8.62v8.63H253.6Zm0,28.75h8.62v8.63H253.6ZM268,31.63h8.63v8.62H268Zm-28.75,0h8.63v8.62h-8.63ZM82.34,155.84h0a22.75,22.75,0,0,0-15.87,6.44,22.75,22.75,0,0,0-15.88-6.44h0a22.91,22.91,0,0,0-16.22,39.08l32.14,32.3,32.14-32.3a22.91,22.91,0,0,0-16.22-39.08Zm10.11,33L66.42,215l-26-26.15a14.31,14.31,0,0,1,0-20.21,14.15,14.15,0,0,1,10.07-4.17h0a14.16,14.16,0,0,1,10.08,4.21l5.81,5.84,5.81-5.84a14.16,14.16,0,0,1,10.08-4.21h0a14.17,14.17,0,0,1,10.07,4.17,14.32,14.32,0,0,1,0,20.21Z"/></g></g></svg>