<svg xmlns="http://www.w3.org/2000/svg" viewBox="0 0 298.69 298.86"><defs><style>.cls-1{fill:#fff;}.cls-2{fill:#aedbed;}.cls-3{fill:#fceda7;}.cls-4{fill:#444;}</style></defs><g id="Layer_2" data-name="Layer 2"><g id="Capa_1" data-name="Capa 1"><path class="cls-1" d="M176.59,162.58V135.72h45.53L176.59,89.61V18.39a14,14,0,0,0-14-14H18.39a14,14,0,0,0-14,14V162.58a14,14,0,0,0,14,14H162.58a14,14,0,0,0,14-14Z"/><path class="cls-1" d="M173.27,221v28.41l30,14.46,22.11-18.8Z"/><path class="cls-1" d="M291.69,100.9a28.8,28.8,0,0,0-52.33-24.07l-13.19,28.76,52.29,24.06Z"/><polygon class="cls-2" points="173.27 249.45 203.24 263.91 173.27 289.39 173.27 249.45"/><polygon class="cls-2" points="226.17 105.6 173.27 221.04 225.35 245.11 278.46 129.65 226.17 105.6"/><circle class="cls-3" cx="51.66" cy="90.48" r="10.51"/><circle class="cls-3" cx="93.11" cy="90.48" r="10.51"/><circle class="cls-3" cx="134.56" cy="90.48" r="10.51"/><path class="cls-4" d="M181,162.58V140.1H232.6L181,87.81V18.39A18.41,18.41,0,0,0,162.58,0H18.39A18.41,18.41,0,0,0,0,18.39V162.58A18.41,18.41,0,0,0,18.39,181H162.58A18.41,18.41,0,0,0,181,162.58Zm-8.76,0a9.64,9.64,0,0,1-9.63,9.63H18.39a9.64,9.64,0,0,1-9.63-9.63V18.39a9.64,9.64,0,0,1,9.63-9.63H162.58a9.64,9.64,0,0,1,9.63,9.63v73l39.43,39.95H172.21ZM279.39,58.72a33.17,33.17,0,0,0-44,16.29l-17.23,37.61,8,3.64,2.23-4.85,9,4.14-5.18,11.25,8,3.66,5.17-11.25L255.64,124,206.2,231.44l-10.34-4.78,34.4-74.77-7.95-3.66L187.91,223l-8.84-4.09,31.3-68.31-8-3.65-33.52,73.15v78.78l60-51,66.74-145.09a33.23,33.23,0,0,0-16.27-44ZM177.65,227.88l39.64,18.33-14.72,12.52-24.92-12Zm0,28.55,17.63,8.5-17.63,15ZM223.2,239.3l-9-4.19L263.6,127.63l9.06,4.17ZM287.71,99.07l-11.4,24.77L232,103.44l11.36-24.78a24.42,24.42,0,0,1,44.38,20.41ZM51.66,75.6A14.89,14.89,0,1,0,66.55,90.48,14.89,14.89,0,0,0,51.66,75.6Zm0,21a6.13,6.13,0,1,1,6.13-6.13A6.14,6.14,0,0,1,51.66,96.61Zm41.45-21A14.89,14.89,0,1,0,108,90.48,14.9,14.9,0,0,0,93.11,75.6Zm0,21a6.13,6.13,0,1,1,6.13-6.13A6.14,6.14,0,0,1,93.11,96.61Zm41.45-21a14.89,14.89,0,1,0,14.88,14.88A14.9,14.9,0,0,0,134.56,75.6Zm0,21a6.13,6.13,0,1,1,6.13-6.13A6.14,6.14,0,0,1,134.56,96.61Z"/></g></g></svg>